<?xml version="1.0" encoding="UTF-8" standalone="no"?>
<!-- Created with Inkscape (http://www.inkscape.org/) -->

<svg
   width="300"
   height="300"
   viewBox="0 0 79.374998 79.375"
   version="1.1"
   id="svg1"
   sodipodi:docname="logo.svg"
   inkscape:version="1.3.2 (091e20ef0f, 2023-11-25, custom)"
   xml:space="preserve"
   inkscape:export-filename="logo.png"
   inkscape:export-xdpi="96"
   inkscape:export-ydpi="96"
   xmlns:inkscape="http://www.inkscape.org/namespaces/inkscape"
   xmlns:sodipodi="http://sodipodi.sourceforge.net/DTD/sodipodi-0.dtd"
   xmlns:xlink="http://www.w3.org/1999/xlink"
   xmlns="http://www.w3.org/2000/svg"
   xmlns:svg="http://www.w3.org/2000/svg"><sodipodi:namedview
     id="namedview1"
     pagecolor="#ffffff"
     bordercolor="#111111"
     borderopacity="1"
     inkscape:showpageshadow="0"
     inkscape:pageopacity="0"
     inkscape:pagecheckerboard="1"
     inkscape:deskcolor="#d1d1d1"
     inkscape:document-units="mm"
     inkscape:zoom="1.0683582"
     inkscape:cx="-7.0201175"
     inkscape:cy="124.49008"
     inkscape:window-width="1920"
     inkscape:window-height="1052"
     inkscape:window-x="0"
     inkscape:window-y="0"
     inkscape:window-maximized="1"
     inkscape:current-layer="layer1" /><defs
     id="defs1"><linearGradient
       id="linearGradient2795"><stop
         style="stop-color:#b8b8b8;stop-opacity:0.49803922;"
         offset="0"
         id="stop2797" /><stop
         style="stop-color:#7f7f7f;stop-opacity:0;"
         offset="1"
         id="stop2799" /></linearGradient><linearGradient
       id="linearGradient2787"><stop
         style="stop-color:#7f7f7f;stop-opacity:0.5;"
         offset="0"
         id="stop2789" /><stop
         style="stop-color:#7f7f7f;stop-opacity:0;"
         offset="1"
         id="stop2791" /></linearGradient><linearGradient
       id="linearGradient3676"><stop
         style="stop-color:#b2b2b2;stop-opacity:0.5;"
         offset="0"
         id="stop3678" /><stop
         style="stop-color:#b3b3b3;stop-opacity:0;"
         offset="1"
         id="stop3680" /></linearGradient><linearGradient
       id="linearGradient3236"><stop
         style="stop-color:#f4f4f4;stop-opacity:1"
         offset="0"
         id="stop3244" /><stop
         style="stop-color:white;stop-opacity:1"
         offset="1"
         id="stop3240" /></linearGradient><linearGradient
       id="linearGradient4671"><stop
         style="stop-color:#ffd43b;stop-opacity:1;"
         offset="0"
         id="stop4673" /><stop
         style="stop-color:#ffe873;stop-opacity:1"
         offset="1"
         id="stop4675" /></linearGradient><linearGradient
       id="linearGradient4689"><stop
         style="stop-color:#5a9fd4;stop-opacity:1;"
         offset="0"
         id="stop4691" /><stop
         style="stop-color:#306998;stop-opacity:1;"
         offset="1"
         id="stop4693" /></linearGradient><linearGradient
       x1="224.23996"
       y1="144.75717"
       x2="-65.308502"
       y2="144.75717"
       id="linearGradient2987"
       xlink:href="#linearGradient4671"
       gradientUnits="userSpaceOnUse"
       gradientTransform="translate(100.2702,99.61116)" /><linearGradient
       x1="172.94208"
       y1="77.475983"
       x2="26.670298"
       y2="76.313133"
       id="linearGradient2990"
       xlink:href="#linearGradient4689"
       gradientUnits="userSpaceOnUse"
       gradientTransform="translate(100.2702,99.61116)" /><linearGradient
       inkscape:collect="always"
       xlink:href="#linearGradient4671"
       id="linearGradient2255"
       gradientUnits="userSpaceOnUse"
       gradientTransform="matrix(0.562541,0,0,0.567972,-11.5974,-7.60954)"
       x1="224.23996"
       y1="144.75717"
       x2="-65.308502"
       y2="144.75717" /><linearGradient
       inkscape:collect="always"
       xlink:href="#linearGradient4689"
       id="linearGradient2258"
       gradientUnits="userSpaceOnUse"
       gradientTransform="matrix(0.562541,0,0,0.567972,-11.5974,-7.60954)"
       x1="172.94208"
       y1="76.176224"
       x2="26.670298"
       y2="76.313133" /><radialGradient
       inkscape:collect="always"
       xlink:href="#linearGradient2795"
       id="radialGradient2801"
       cx="61.518883"
       cy="132.28575"
       fx="61.518883"
       fy="132.28575"
       r="29.036913"
       gradientTransform="matrix(1,0,0,0.177966,0,108.7434)"
       gradientUnits="userSpaceOnUse" /><linearGradient
       inkscape:collect="always"
       xlink:href="#linearGradient4671"
       id="linearGradient1475"
       gradientUnits="userSpaceOnUse"
       gradientTransform="matrix(0.14883897,0,0,0.15027592,154.52796,82.656811)"
       x1="150.96111"
       y1="192.35176"
       x2="112.03144"
       y2="137.27299" /><linearGradient
       inkscape:collect="always"
       xlink:href="#linearGradient4689"
       id="linearGradient1478"
       gradientUnits="userSpaceOnUse"
       gradientTransform="matrix(0.14883897,0,0,0.15027592,154.52796,82.656811)"
       x1="26.648937"
       y1="20.603781"
       x2="135.66525"
       y2="114.39767" /></defs><g
     inkscape:label="Layer 1"
     inkscape:groupmode="layer"
     id="layer1"
     transform="translate(-74.083336,-62.970837)"><rect
       style="fill:#ffffff;stroke:none;stroke-width:1.25"
       id="rect1"
       width="79.375"
       height="79.375"
       x="74.083336"
       y="62.970837"
       rx="18.557117"
       ry="18.557117" /><circle
       style="fill:#d5d2c9;fill-opacity:1;stroke:none;stroke-width:1.25"
       id="path18"
       cx="113.77083"
       cy="102.65834"
       r="33.072918" /><circle
       style="fill:#000000;fill-opacity:1;stroke:none;stroke-width:1.25"
       id="circle18"
       cx="113.77083"
       cy="102.65834"
       r="29.765625" /><circle
       style="fill:#2d2d2d;fill-opacity:1;stroke:none;stroke-width:1.25"
       id="circle19"
       cx="113.77083"
       cy="102.65834"
       r="23.151041" /><path
       id="rect19"
       style="fill:#ffffff;stroke-width:0.500003"
       d="m 113.24168,80.168747 h 1.05833 l -0.52917,22.489593 -1e-5,0 z"
       sodipodi:nodetypes="ccccc" /><circle
       style="fill:#2d2d2d;fill-opacity:1;stroke:none;stroke-width:1.25"
       id="circle1"
       cx="113.77083"
       cy="102.65834"
       r="16.536459" /><g
       id="g1"
       transform="matrix(0.89959321,0,0,0.89959321,-42.038786,12.140201)"
       style="stroke-width:1.11161"><path
         style="fill:url(#linearGradient1478);fill-opacity:1;stroke-width:0.294114"
         d="m 173.02496,85.753306 c -1.21276,0.0056 -2.37092,0.109066 -3.38998,0.289388 -3.00202,0.530359 -3.54707,1.640444 -3.54707,3.68763 v 2.703711 h 7.09414 v 0.901237 h -7.09414 -2.66237 c -2.06175,0 -3.86709,1.239234 -4.43177,3.59668 -0.65136,2.70218 -0.68025,4.388388 0,7.209898 0.50428,2.10022 1.70856,3.59668 3.77031,3.59668 h 2.43913 v -3.24115 c 0,-2.34154 2.02595,-4.40696 4.43177,-4.40696 h 7.08587 c 1.97246,0 3.54707,-1.624061 3.54707,-3.604953 v -6.755143 c 0,-1.922552 -1.62189,-3.366764 -3.54707,-3.68763 -1.21866,-0.202862 -2.48314,-0.295023 -3.69589,-0.289388 z m -3.83646,2.174545 c 0.73277,0 1.33118,0.608183 1.33118,1.355989 0,0.745156 -0.59841,1.347721 -1.33118,1.347721 -0.73541,0 -1.33119,-0.602566 -1.33119,-1.347721 0,-0.747806 0.59578,-1.355989 1.33119,-1.355989 z"
         id="path1948" /><path
         style="fill:url(#linearGradient1475);fill-opacity:1;stroke-width:0.294114"
         d="m 181.15262,93.335272 v 3.150195 c 0,2.442304 -2.0706,4.497913 -4.43177,4.497913 h -7.08587 c -1.94094,0 -3.54707,1.66119 -3.54707,3.60495 v 6.75514 c 0,1.92256 1.67179,3.05338 3.54707,3.60495 2.24561,0.6603 4.39903,0.77963 7.08587,0 1.78598,-0.5171 3.54707,-1.55776 3.54707,-3.60495 v -2.70371 h -7.08587 v -0.90123 h 7.08587 3.54707 c 2.06176,0 2.83005,-1.43812 3.54707,-3.59668 0.74066,-2.22221 0.70914,-4.359218 0,-7.209898 -0.50953,-2.05249 -1.48269,-3.59668 -3.54707,-3.59668 z m -3.98528,17.106968 c 0.7354,0 1.33118,0.60256 1.33118,1.34772 0,0.7478 -0.59578,1.35599 -1.33118,1.35599 -0.73278,0 -1.33119,-0.60819 -1.33119,-1.35599 0,-0.74516 0.59841,-1.34772 1.33119,-1.34772 z"
         id="path1950" /></g></g></svg>
